<svg xmlns="http://www.w3.org/2000/svg" width="110" height="42" fill="none" viewBox="0 0 110 42"><path fill="#000" d="m10.91 10.389 14.7 8.1 14.698-8.1H10.91ZM24.715 41.958v-21.71L9.5 11.874l15.215 30.085ZM26.503 41.958v-21.71l15.215-8.375-15.215 30.085ZM47.508 19.57c-.492 0-.738.126-.738.377 0 .24.246.361.738.361h3.69c1.968 0 2.951.983 2.951 2.948 0 2.456-1.23 3.685-3.69 3.685h-6.642v-2.948h6.642c.492 0 .738-.112.738-.338 0-.265-.246-.398-.738-.398h-2.951c-2.46 0-3.69-.982-3.69-2.948 0-2.456 1.23-3.684 3.69-3.684h6.641v2.947h-6.641v-.001ZM54.888 16.623H65.22v2.947H54.888v-2.947Zm0 3.685H65.22v2.947H54.888v-2.947Zm0 6.632v-2.947H65.22v2.947H54.888ZM65.957 21.782c0-3.44 1.722-5.159 5.167-5.159 3.444 0 5.166 1.582 5.166 4.745H73.34c0-1.199-.738-1.798-2.214-1.798-1.477 0-2.214.737-2.214 2.211 0 1.474.737 2.21 2.214 2.21 1.476 0 2.214-.608 2.214-1.827h2.951c0 3.184-1.722 4.775-5.166 4.775-3.445.001-5.167-1.718-5.167-5.157ZM81.456 23.255H79.98v3.685h-2.952V16.623h6.642c2.46 0 3.69 1.229 3.69 3.685 0 1.356-.585 2.245-1.756 2.668l6.184 6.175H87.36l-5.904-5.896ZM79.98 19.57v.737h3.69c.492 0 .738-.12.738-.362 0-.25-.246-.376-.738-.376h-3.69v.001Z"/><path fill="#000" d="M88.098 16.623H98.43v2.947H88.098v-2.947Zm0 3.685H98.43v2.947H88.098v-2.947Zm0 6.632v-2.947H98.43v2.947H88.098ZM99.168 16.623H109.5v2.947h-3.69v7.37h-2.952v-7.37h-3.69v-2.947ZM77.028 30.03h2.952v7.37h7.38v2.948H77.028V30.031ZM88.098 40.348V35.19c0-3.44 1.722-5.16 5.166-5.16 3.445 0 5.167 1.72 5.167 5.16v5.16h-2.952v-2.212h-4.428v2.211h-2.953Zm7.38-5.159c0-1.474-.737-2.21-2.214-2.21-1.476 0-2.214.736-2.214 2.21h4.428ZM99.168 40.348V30.031h6.642c2.459 0 3.69 1.229 3.69 3.685 0 .983-.492 1.474-1.476 1.474.983 0 1.476.491 1.476 1.474 0 2.456-1.231 3.685-3.69 3.685h-6.642v-.001Zm6.642-6.632c.491 0 .737-.123.737-.369 0-.245-.246-.368-.737-.368h-3.691v.737h3.691Zm0 3.684c.491 0 .737-.123.737-.369 0-.245-.246-.368-.737-.368h-3.691v.737h3.691Z"/><path fill="#fff" d="M19.541 10.142c.603-3.609-2.111-4.245-3.544-4.112-1.01.982-5.505 4.598-7.482 8.938-1.977 4.34 4.042 6.8 5.009 3.442.773-2.686 4.334-6.631 6.017-8.268Z"/><path stroke="#BB3338" stroke-width=".547" d="M3.561 7.541C3.49 7.157 5.396 2.433 6.548 2.22c1.153-.214 1.295.555 2.69-.499 1.394-1.053 5.635 2.532 6.76 4.31m0 0c1.432-.133 4.146.503 3.543 4.112-1.683 1.637-5.244 5.582-6.017 8.268-.967 3.359-6.986.898-5.01-3.442m7.483-8.938c-1.01.982-5.505 4.598-7.482 8.938m0 0-2.079-4.78"/><circle cx="3.989" cy="9.846" r="2.462" fill="#fff" stroke="#BB3338" stroke-width=".547" transform="rotate(-10.503 3.989 9.846)"/><path fill="#BB3338" d="M6.648 2.2C5.495 2.414 3.59 7.14 3.66 7.523c.816.113 2.533.802 2.875 2.646l2.078 4.78c.869-1.753 3.581-5.995 7.483-8.937-1.125-1.779-5.366-5.363-6.76-4.31-1.394 1.053-1.537.285-2.69.498Z"/></svg>